<svg width="400" height="622" viewBox="0 0 400 622" fill="none" xmlns="http://www.w3.org/2000/svg">
<g clip-path="url(#clip0_11_208)">
<rect width="400" height="622" rx="40" fill="#33404F"/>
<circle opacity="0.1" cx="314" cy="55" r="161" fill="white"/>
<circle opacity="0.1" cx="5.5" cy="23.5" r="55.5" fill="white"/>
<circle opacity="0.1" cy="272" r="114" fill="white"/>
<circle opacity="0.1" cx="116.5" cy="471.5" r="67.5" fill="white"/>
<circle opacity="0.1" cx="418" cy="535" r="124" fill="white"/>
<circle opacity="0.1" cx="261" cy="333" r="40" fill="white"/>
<path d="M79.2496 578.686C75.4296 581.759 70.5791 583.594 65.2971 583.594C52.9839 583.594 43 573.61 43 561.297C43 548.984 52.9839 539 65.2971 539C71.1207 539 76.417 541.234 80.3856 544.886C75.3002 548.969 72.0457 555.244 72.0457 562.275C72.0457 568.769 74.8209 574.612 79.2496 578.686Z" fill="white"/>
<path d="M87.5943 561.297C87.5943 568.328 84.3398 574.603 79.2496 578.686C74.8209 574.612 72.0457 568.769 72.0457 562.275C72.0457 555.244 75.3002 548.969 80.3856 544.886C84.8191 548.96 87.5943 554.803 87.5943 561.297Z" fill="#33404F"/>
<path d="M116.64 562.275C116.64 574.588 106.656 584.572 94.3429 584.572C88.5193 584.572 83.223 582.338 79.2496 578.686C84.3398 574.603 87.5943 568.328 87.5943 561.297C87.5943 554.803 84.8191 548.96 80.3856 544.886C84.2056 541.813 89.061 539.978 94.3429 539.978C106.656 539.978 116.64 549.962 116.64 562.275Z" fill="white"/>
<path d="M70.811 90.8401H62.55V102.265H70.811V90.8401Z" fill="white"/>
<path d="M70.811 77.735H62.55V89.84H70.811V77.735Z" fill="white"/>
<path d="M52.8425 76.735H61.45V60H45.5C42.464 60 40 62.24 40 65V66.81L52.8425 76.735Z" fill="white"/>
<path d="M71.9109 77.465V89.84H83.9999V68.125L71.9109 77.465Z" fill="white"/>
<path d="M71.9109 102.535L83.9999 111.875V90.8401H71.9109V102.535Z" fill="white"/>
<path d="M62.5501 76.735H71.1576L84.0001 66.81V65C84.0001 62.24 81.5361 60 78.5001 60H62.5501V76.735Z" fill="white"/>
<path d="M61.45 103.265H52.8425L40 113.19V115C40 117.76 42.464 120 45.5 120H61.45V103.265Z" fill="white"/>
<path d="M71.1575 103.265H62.55V120H78.5C81.536 120 84 117.76 84 115V113.19L71.1575 103.265Z" fill="white"/>
<path d="M52.089 102.535V90.8401H40V111.875L52.089 102.535Z" fill="white"/>
<path d="M61.4498 77.735H53.1888V89.84H61.4498V77.735Z" fill="white"/>
<path d="M61.4498 90.8401H53.1888V102.265H61.4498V90.8401Z" fill="white"/>
<path d="M52.089 77.465L40 68.125V89.84H52.089V77.465Z" fill="white"/>
</g>
<defs>
<clipPath id="clip0_11_208">
<rect width="400" height="622" rx="40" fill="white"/>
</clipPath>
</defs>
</svg>
