<svg width="100" height="31" viewBox="0 0 100 31" fill="none" xmlns="http://www.w3.org/2000/svg">
<path d="M39.9019 0.510437L34.8373 30.2313H42.9373L48.0061 0.510437H39.9019Z" fill="white"/>
<path d="M28.046 0.543726L20.1126 20.8125L19.2668 17.7521C17.7022 14.0646 13.2605 8.76872 8.04596 5.43122L15.3001 30.2166L23.871 30.2021L36.6272 0.537476L28.046 0.543726Z" fill="white"/>
<path d="M16.1917 2.67081C15.7208 0.860393 14.3563 0.320809 12.6625 0.256226H0.104167L0 0.847893C9.77292 3.21873 16.2396 8.93123 18.9229 15.8L16.1917 2.67081Z" fill="white"/>
<path d="M64.4228 6.20833C67.0728 6.16667 68.9937 6.74583 70.4853 7.34583L71.2166 7.68958L72.3124 1.24791C70.7083 0.645831 68.1937 0 65.0562 0C57.052 0 51.4103 4.03125 51.3666 9.80833C51.3145 14.0771 55.3853 16.4604 58.4603 17.8833C61.6166 19.3417 62.6749 20.2688 62.6603 21.5708C62.6353 23.5604 60.1437 24.4729 57.8166 24.4729C54.5728 24.4729 52.8499 24.025 50.1895 22.9167L49.1457 22.4417L48.0062 29.0937C49.902 29.925 53.3999 30.6396 57.0312 30.6771C65.5457 30.6771 71.0791 26.6937 71.1374 20.5208C71.1728 17.1437 69.0124 14.5667 64.3312 12.4521C61.4978 11.0729 59.7645 10.1562 59.7812 8.76458C59.7812 7.52916 61.252 6.20833 64.4228 6.20833Z" fill="white"/>
<path d="M93.1 0.543762H86.8417C84.8979 0.543762 83.4521 1.07293 82.5979 3.01043L70.5709 30.2479H79.0771C79.0771 30.2479 80.4646 26.5854 80.7792 25.7833C81.7104 25.7833 89.975 25.7958 91.1521 25.7958C91.3938 26.8333 92.1396 30.2479 92.1396 30.2479H99.6542L93.1 0.543762ZM83.1104 19.7C83.7771 17.9938 86.3375 11.3938 86.3375 11.3938C86.2938 11.475 86.9979 9.67501 87.4167 8.55626L87.9625 11.1188C87.9625 11.1188 89.5146 18.2146 89.8396 19.7H83.1104Z" fill="white"/>
</svg>
